<svg xmlns="http://www.w3.org/2000/svg" width="96" height="96" viewBox="0 0 96 96" role="img" aria-label="Default plant photo">
  <defs>
    <linearGradient id="bg" x1="0" x2="1" y1="0" y2="1">
      <stop offset="0%" stop-color="#d8f0d7"/>
      <stop offset="100%" stop-color="#9bcf9d"/>
    </linearGradient>
    <linearGradient id="leaf" x1="0" x2="1" y1="0" y2="1">
      <stop offset="0%" stop-color="#2f8d4f"/>
      <stop offset="100%" stop-color="#1f6c3c"/>
    </linearGradient>
  </defs>
  <rect x="0" y="0" width="96" height="96" rx="16" fill="url(#bg)"/>
  <ellipse cx="48" cy="72" rx="24" ry="10" fill="#7ba774" opacity="0.45"/>
  <path d="M48 66c0-20 5-33 16-41 3 13-1 23-11 31 11-4 19-1 24 8-11 6-21 5-29-3v5z" fill="url(#leaf)"/>
  <path d="M48 66c0-17-5-29-15-36-2 11 1 20 10 27-10-3-17-1-22 6 10 6 18 5 27-2v5z" fill="#2f7f48"/>
  <rect x="46" y="58" width="4" height="16" rx="2" fill="#2a5f38"/>
</svg>
